name rise30.2954peak35.7071fall66.7804.mot
datacolumns 19
datarows 36
range 9.60330300000000 9.66163300000000
endheader
time	ground_force1_vx	ground_force1_vy	ground_force1_vz	ground_force1_px	ground_force1_py	ground_force1_pz	ground_force2_vx	ground_force2_vy	ground_force2_vz	ground_force2_px	ground_force2_py	ground_force2_pz	ground_torque1_x	ground_torque1_y	ground_torque1_z	ground_torque2_x	ground_torque2_y	ground_torque2_z	
9.60330300000000	68.37603400000000	786.40500299999997	53.79493900000000	0.35822600000000	0.00000000000000	0.11840300000000	0.00000000000000	0.00000000000000	0.00000000000000	0.00000000000000	0.00000000000000	0.00000000000000	0.00000000000000	20.30908300000000	0.00000000000000	0.00000000000000	0.00000000000000	0.00000000000000	
9.60496900000000	67.76233400000000	789.31596700000000	53.81383300000000	0.35758700000000	0.00000000000000	0.11839600000000	0.00000000000000	0.00000000000000	0.00000000000000	0.00000000000000	0.00000000000000	0.00000000000000	0.00000000000000	20.37290300000000	0.00000000000000	0.00000000000000	0.00000000000000	0.00000000000000	
9.60663500000000	67.14298900000000	792.06222900000000	53.82820100000000	0.35696600000000	0.00000000000000	0.11839000000000	0.00000000000000	0.00000000000000	0.00000000000000	0.00000000000000	0.00000000000000	0.00000000000000	0.00000000000000	20.43715200000000	0.00000000000000	0.00000000000000	0.00000000000000	0.00000000000000	
9.60830200000000	66.51868200000000	794.64164600000004	53.83813000000000	0.35635900000000	0.00000000000000	0.11838600000000	0.00000000000000	0.00000000000000	0.00000000000000	0.00000000000000	0.00000000000000	0.00000000000000	0.00000000000000	20.50171700000000	0.00000000000000	0.00000000000000	0.00000000000000	0.00000000000000	
9.60996300000000	65.89005600000000	797.05235500000003	53.84366000000000	0.35576600000000	0.00000000000000	0.11838400000000	0.00000000000000	0.00000000000000	0.00000000000000	0.00000000000000	0.00000000000000	0.00000000000000	0.00000000000000	20.56644300000000	0.00000000000000	0.00000000000000	0.00000000000000	0.00000000000000	
9.61163700000000	65.25771500000000	799.29279299999996	53.84477700000000	0.35518600000000	0.00000000000000	0.11838300000000	0.00000000000000	0.00000000000000	0.00000000000000	0.00000000000000	0.00000000000000	0.00000000000000	0.00000000000000	20.63114300000000	0.00000000000000	0.00000000000000	0.00000000000000	0.00000000000000	
9.61330200000000	64.62222600000000	801.36170000000004	53.84142400000000	0.35461700000000	0.00000000000000	0.11838400000000	0.00000000000000	0.00000000000000	0.00000000000000	0.00000000000000	0.00000000000000	0.00000000000000	0.00000000000000	20.69559500000000	0.00000000000000	0.00000000000000	0.00000000000000	0.00000000000000	
9.61496700000000	63.98412200000000	803.25813500000004	53.83350500000000	0.35405800000000	0.00000000000000	0.11838600000000	0.00000000000000	0.00000000000000	0.00000000000000	0.00000000000000	0.00000000000000	0.00000000000000	0.00000000000000	20.75954800000000	0.00000000000000	0.00000000000000	0.00000000000000	0.00000000000000	
9.61663400000000	63.34390300000000	804.98148000000003	53.82088400000000	0.35350700000000	0.00000000000000	0.11839100000000	0.00000000000000	0.00000000000000	0.00000000000000	0.00000000000000	0.00000000000000	0.00000000000000	0.00000000000000	20.82272200000000	0.00000000000000	0.00000000000000	0.00000000000000	0.00000000000000	
9.61829800000000	62.70203600000000	806.53144899999995	53.80339600000000	0.35296300000000	0.00000000000000	0.11839700000000	0.00000000000000	0.00000000000000	0.00000000000000	0.00000000000000	0.00000000000000	0.00000000000000	0.00000000000000	20.88481800000000	0.00000000000000	0.00000000000000	0.00000000000000	0.00000000000000	
9.61996700000000	62.05896200000000	807.90809300000001	53.78084600000000	0.35242300000000	0.00000000000000	0.11840500000000	0.00000000000000	0.00000000000000	0.00000000000000	0.00000000000000	0.00000000000000	0.00000000000000	0.00000000000000	20.94551100000000	0.00000000000000	0.00000000000000	0.00000000000000	0.00000000000000	
9.62163200000000	61.41509200000000	809.11180100000001	53.75301800000000	0.35188700000000	0.00000000000000	0.11841500000000	0.00000000000000	0.00000000000000	0.00000000000000	0.00000000000000	0.00000000000000	0.00000000000000	0.00000000000000	21.00446500000000	0.00000000000000	0.00000000000000	0.00000000000000	0.00000000000000	
9.62330100000000	60.77081600000000	810.14330700000005	53.71967300000000	0.35135300000000	0.00000000000000	0.11842700000000	0.00000000000000	0.00000000000000	0.00000000000000	0.00000000000000	0.00000000000000	0.00000000000000	0.00000000000000	21.06132600000000	0.00000000000000	0.00000000000000	0.00000000000000	0.00000000000000	
9.62496900000000	60.12649900000000	811.00368800000001	53.68056400000000	0.35081800000000	0.00000000000000	0.11844100000000	0.00000000000000	0.00000000000000	0.00000000000000	0.00000000000000	0.00000000000000	0.00000000000000	0.00000000000000	21.11573200000000	0.00000000000000	0.00000000000000	0.00000000000000	0.00000000000000	
9.62663000000000	59.48248700000000	811.69436199999996	53.63542800000000	0.35028200000000	0.00000000000000	0.11845600000000	0.00000000000000	0.00000000000000	0.00000000000000	0.00000000000000	0.00000000000000	0.00000000000000	0.00000000000000	21.16731300000000	0.00000000000000	0.00000000000000	0.00000000000000	0.00000000000000	
9.62830500000000	58.83910500000000	812.21708699999999	53.58400100000000	0.34974100000000	0.00000000000000	0.11847400000000	0.00000000000000	0.00000000000000	0.00000000000000	0.00000000000000	0.00000000000000	0.00000000000000	0.00000000000000	21.21569700000000	0.00000000000000	0.00000000000000	0.00000000000000	0.00000000000000	
9.62996700000000	58.19666500000000	812.57395699999995	53.52601500000000	0.34919600000000	0.00000000000000	0.11849300000000	0.00000000000000	0.00000000000000	0.00000000000000	0.00000000000000	0.00000000000000	0.00000000000000	0.00000000000000	21.26051100000000	0.00000000000000	0.00000000000000	0.00000000000000	0.00000000000000	
9.63163100000000	57.55546300000000	812.76739799999996	53.46120600000000	0.34864300000000	0.00000000000000	0.11851400000000	0.00000000000000	0.00000000000000	0.00000000000000	0.00000000000000	0.00000000000000	0.00000000000000	0.00000000000000	21.30138300000000	0.00000000000000	0.00000000000000	0.00000000000000	0.00000000000000	
9.63330500000000	56.91578100000000	812.80015800000001	53.38931400000000	0.34808100000000	0.00000000000000	0.11853800000000	0.00000000000000	0.00000000000000	0.00000000000000	0.00000000000000	0.00000000000000	0.00000000000000	0.00000000000000	21.33795100000000	0.00000000000000	0.00000000000000	0.00000000000000	0.00000000000000	
9.63497100000000	56.27789200000000	812.67530099999999	53.31009200000000	0.34750900000000	0.00000000000000	0.11856300000000	0.00000000000000	0.00000000000000	0.00000000000000	0.00000000000000	0.00000000000000	0.00000000000000	0.00000000000000	21.36985600000000	0.00000000000000	0.00000000000000	0.00000000000000	0.00000000000000	
9.63663000000000	55.64206000000000	812.39619700000003	53.22330400000000	0.34692400000000	0.00000000000000	0.11859000000000	0.00000000000000	0.00000000000000	0.00000000000000	0.00000000000000	0.00000000000000	0.00000000000000	0.00000000000000	21.39675600000000	0.00000000000000	0.00000000000000	0.00000000000000	0.00000000000000	
9.63830100000000	55.00853800000000	811.96651299999996	53.12873100000000	0.34632500000000	0.00000000000000	0.11861900000000	0.00000000000000	0.00000000000000	0.00000000000000	0.00000000000000	0.00000000000000	0.00000000000000	0.00000000000000	21.41831900000000	0.00000000000000	0.00000000000000	0.00000000000000	0.00000000000000	
9.63996400000000	54.37757600000000	811.39019800000005	53.02617200000000	0.34571000000000	0.00000000000000	0.11865000000000	0.00000000000000	0.00000000000000	0.00000000000000	0.00000000000000	0.00000000000000	0.00000000000000	0.00000000000000	21.43423200000000	0.00000000000000	0.00000000000000	0.00000000000000	0.00000000000000	
9.64163400000000	53.74941700000000	810.67147199999999	52.91545000000000	0.34507700000000	0.00000000000000	0.11868300000000	0.00000000000000	0.00000000000000	0.00000000000000	0.00000000000000	0.00000000000000	0.00000000000000	0.00000000000000	21.44420000000000	0.00000000000000	0.00000000000000	0.00000000000000	0.00000000000000	
9.64330000000000	53.12429900000000	809.81481299999996	52.79640900000000	0.34442600000000	0.00000000000000	0.11871700000000	0.00000000000000	0.00000000000000	0.00000000000000	0.00000000000000	0.00000000000000	0.00000000000000	0.00000000000000	21.44794900000000	0.00000000000000	0.00000000000000	0.00000000000000	0.00000000000000	
9.64496700000000	52.50245900000000	808.82493799999997	52.66892100000000	0.34375400000000	0.00000000000000	0.11875400000000	0.00000000000000	0.00000000000000	0.00000000000000	0.00000000000000	0.00000000000000	0.00000000000000	0.00000000000000	21.44522700000000	0.00000000000000	0.00000000000000	0.00000000000000	0.00000000000000	
9.64663500000000	51.88413000000000	807.70679399999995	52.53288300000000	0.34305900000000	0.00000000000000	0.11879200000000	0.00000000000000	0.00000000000000	0.00000000000000	0.00000000000000	0.00000000000000	0.00000000000000	0.00000000000000	21.43580800000000	0.00000000000000	0.00000000000000	0.00000000000000	0.00000000000000	
9.64830400000000	51.26954400000000	806.46553300000005	52.38822400000000	0.34234200000000	0.00000000000000	0.11883200000000	0.00000000000000	0.00000000000000	0.00000000000000	0.00000000000000	0.00000000000000	0.00000000000000	0.00000000000000	21.41949100000000	0.00000000000000	0.00000000000000	0.00000000000000	0.00000000000000	
9.64996800000000	50.65893000000000	805.10650199999998	52.23490000000000	0.34159900000000	0.00000000000000	0.11887400000000	0.00000000000000	0.00000000000000	0.00000000000000	0.00000000000000	0.00000000000000	0.00000000000000	0.00000000000000	21.39610300000000	0.00000000000000	0.00000000000000	0.00000000000000	0.00000000000000	
9.65163900000000	50.05251900000000	803.63522100000000	52.07289800000000	0.34083100000000	0.00000000000000	0.11891800000000	0.00000000000000	0.00000000000000	0.00000000000000	0.00000000000000	0.00000000000000	0.00000000000000	0.00000000000000	21.36550000000000	0.00000000000000	0.00000000000000	0.00000000000000	0.00000000000000	
9.65330300000000	49.45054000000000	802.05736400000001	51.90223700000000	0.34003600000000	0.00000000000000	0.11896300000000	0.00000000000000	0.00000000000000	0.00000000000000	0.00000000000000	0.00000000000000	0.00000000000000	0.00000000000000	21.32756600000000	0.00000000000000	0.00000000000000	0.00000000000000	0.00000000000000	
9.65497000000000	48.85322100000000	800.37874499999998	51.72296700000000	0.33921300000000	0.00000000000000	0.11901000000000	0.00000000000000	0.00000000000000	0.00000000000000	0.00000000000000	0.00000000000000	0.00000000000000	0.00000000000000	21.28221600000000	0.00000000000000	0.00000000000000	0.00000000000000	0.00000000000000	
9.65663200000000	48.26079000000000	798.60529399999996	51.53516700000000	0.33836100000000	0.00000000000000	0.11905900000000	0.00000000000000	0.00000000000000	0.00000000000000	0.00000000000000	0.00000000000000	0.00000000000000	0.00000000000000	21.22939600000000	0.00000000000000	0.00000000000000	0.00000000000000	0.00000000000000	
9.65829900000000	47.67347500000000	796.74303899999995	51.33895000000000	0.33747900000000	0.00000000000000	0.11911000000000	0.00000000000000	0.00000000000000	0.00000000000000	0.00000000000000	0.00000000000000	0.00000000000000	0.00000000000000	21.16908000000000	0.00000000000000	0.00000000000000	0.00000000000000	0.00000000000000	
9.65997100000000	47.09150300000000	794.79808600000001	51.13445600000000	0.33656700000000	0.00000000000000	0.11916200000000	0.00000000000000	0.00000000000000	0.00000000000000	0.00000000000000	0.00000000000000	0.00000000000000	0.00000000000000	21.10127700000000	0.00000000000000	0.00000000000000	0.00000000000000	0.00000000000000	
9.66163300000000	46.51510000000000	792.77660200000003	50.92185800000000	0.33562400000000	0.00000000000000	0.11921500000000	0.00000000000000	0.00000000000000	0.00000000000000	0.00000000000000	0.00000000000000	0.00000000000000	0.00000000000000	21.02602400000000	0.00000000000000	0.00000000000000	0.00000000000000	0.00000000000000	
